<svg xmlns="http://www.w3.org/2000/svg" width="31" height="30" fill="none" viewBox="0 0 31 30">
    <g clip-path="url(#a)">
        <path fill="#fff" d="M13.125 16.786 16.7 20.2c.32.306.812.375 1.21.17l4.284-2.197c.316-.162.7-.155 1.008.021l6.25 3.543a.956.956 0 0 1 .417 1.235c-.534 1.161-1.506 3.29-1.893 4.23-.08.199-.202.38-.37.52-4.165 3.449-12.452-.754-18.795-6.814C2.468 14.848-1.93 6.93 1.68 2.95a1.37 1.37 0 0 1 .543-.354c.984-.37 3.212-1.298 4.427-1.808a1.048 1.048 0 0 1 1.293.398l3.708 5.971a.943.943 0 0 1 .022.964l-2.3 4.092a.948.948 0 0 0 .18 1.157l3.573 3.415Z"/>
    </g>
    <defs>
        <clipPath id="a">
        <path fill="#fff" d="M0 0h30.038v28.7H0z" transform="translate(.148 .486)"/>
        </clipPath>
    </defs>
</svg>