<svg width="23" height="23" viewBox="0 0 23 23" fill="none" xmlns="http://www.w3.org/2000/svg">
<g clip-path="url(#clip0_23_52)">
<path d="M10.5418 4.79181V18.2082C10.542 18.3888 10.4912 18.5659 10.3951 18.7189C10.299 18.8719 10.1617 18.9946 9.99884 19.0729C9.83602 19.1512 9.65439 19.1819 9.47489 19.1614C9.29539 19.1408 9.12535 19.07 8.98438 18.957L4.45535 15.3332H2.875C2.11276 15.3323 1.38197 15.0292 0.842987 14.4902C0.304001 13.9512 0.000832337 13.2204 0 12.4582L0 10.5418C0.000832337 9.77957 0.304001 9.04879 0.842987 8.5098C1.38197 7.97081 2.11276 7.66764 2.875 7.66681H4.45535L8.98438 4.04296C9.12532 3.93013 9.29528 3.85942 9.47467 3.83897C9.65405 3.81853 9.83556 3.84918 9.99829 3.92739C10.161 4.00561 10.2983 4.12821 10.3944 4.28107C10.4905 4.43392 10.5414 4.61082 10.5414 4.79136L10.5418 4.79181ZM12.9725 8.86533C12.8801 8.95073 12.8053 9.05351 12.7526 9.16781C12.6999 9.28211 12.6702 9.40567 12.6652 9.53145C12.6602 9.65723 12.6801 9.78275 12.7237 9.90085C12.7672 10.0189 12.8336 10.1273 12.9191 10.2197C13.2389 10.5694 13.4162 11.0261 13.4162 11.5C13.4162 11.9739 13.2389 12.4306 12.9191 12.7803C12.8335 12.8727 12.767 12.981 12.7234 13.0991C12.6797 13.2173 12.6597 13.3428 12.6646 13.4686C12.6695 13.5945 12.6991 13.7181 12.7517 13.8325C12.8043 13.9469 12.879 14.0498 12.9714 14.1353C13.0638 14.2209 13.1722 14.2874 13.2903 14.331C13.4084 14.3747 13.534 14.3947 13.6598 14.3898C13.7856 14.385 13.9093 14.3554 14.0237 14.3027C14.138 14.2501 14.2409 14.1754 14.3265 14.083C14.9739 13.3791 15.3333 12.4577 15.3333 11.5013C15.3333 10.545 14.9739 9.62355 14.3265 8.91968C14.1541 8.73298 13.9147 8.62234 13.6609 8.61206C13.407 8.60179 13.1594 8.69272 12.9725 8.86488V8.86533ZM17.0254 6.19337C16.8494 6.01002 16.6078 5.90407 16.3537 5.89885C16.0997 5.89363 15.8539 5.98955 15.6705 6.16552C15.4872 6.34149 15.3812 6.58309 15.376 6.83718C15.3708 7.09126 15.4667 7.33701 15.6427 7.52037C16.6734 8.58888 17.2494 10.0156 17.2494 11.5002C17.2494 12.9848 16.6734 14.4116 15.6427 15.4801C15.5556 15.5709 15.4872 15.6779 15.4414 15.7951C15.3957 15.9124 15.3734 16.0375 15.376 16.1633C15.3786 16.2891 15.406 16.4131 15.4565 16.5284C15.507 16.6436 15.5798 16.7478 15.6705 16.8349C15.7613 16.922 15.8684 16.9904 15.9856 17.0362C16.1028 17.082 16.2279 17.1042 16.3537 17.1016C16.4795 17.099 16.6036 17.0717 16.7189 17.0211C16.8341 16.9706 16.9383 16.8979 17.0254 16.8071C18.3987 15.3817 19.166 13.4795 19.166 11.5002C19.166 9.52093 18.3987 7.6187 17.0254 6.19337ZM19.7369 3.47111C19.5581 3.29542 19.3175 3.19676 19.0668 3.19629C18.8161 3.19582 18.5752 3.29357 18.3958 3.46858C18.2163 3.6436 18.1125 3.88196 18.1067 4.13258C18.1008 4.3832 18.1934 4.62614 18.3645 4.80933C20.1074 6.60058 21.0826 9.0012 21.0826 11.5004C21.0826 13.9997 20.1074 16.4003 18.3645 18.1916C18.1934 18.3747 18.1008 18.6177 18.1067 18.8683C18.1125 19.1189 18.2163 19.3573 18.3958 19.5323C18.5752 19.7073 18.8161 19.8051 19.0668 19.8046C19.3175 19.8041 19.5581 19.7055 19.7369 19.5298C21.8286 17.3804 22.999 14.4996 22.999 11.5004C22.999 8.50125 21.8286 5.62046 19.7369 3.47111Z" fill="black"/>
</g>
<defs>
<clipPath id="clip0_23_52">
<rect width="23" height="23" fill="white"/>
</clipPath>
</defs>
</svg>
